<?xml version="1.0" encoding="UTF-8"?>
<svg id="Layer_1" data-name="Layer 1" xmlns="http://www.w3.org/2000/svg" viewBox="0 0 500 500">
  <defs>
    <style>
      .cls-1 {
        fill: #2d2d2d;
        stroke-width: 0px;
      }
    </style>
  </defs>
  <path class="cls-1" d="M459.11,40.34c-29.22-28.05-76.48-23.7-99.81-19.32-13.4,2.46-21.09,8.04-24.46,11.1l-24.39,24.39s0,0,0,0,0,0,0,0l-55.17,55.17s0,0,0,0,0,0,0,0l-172.34,172.35h0c-2.02,2.02-3.54,3.82-4.84,5.5h-.01c-2.45,3.39-4.62,8.77-4.62,8.77l-52.91,163.48c-1.82,5.61-.36,11.77,3.77,15.97,3.02,3.07,7.11,4.73,11.29,4.73,1.54,0,3.1-.22,4.62-.69l143.09-43.65c5.19-1.59,9.21-5.72,10.65-10.95,1.44-5.23.09-10.84-3.56-14.85l-52.79-57.97-38.41-41.83,167.27-167.27,87.96,87.96-124.02,124.02c-6.18,6.18-6.18,16.2,0,22.39,6.18,6.18,16.21,6.18,22.39,0l190.35-190.36s.02-.02.03-.03c0,0,.02-.02.03-.03l10.43-10.43h0s8.32-8.32,8.32-8.32c5.64-6.6,12.76-17.02,16.79-30.93,8.74-44.89,2.19-78.25-19.63-99.2ZM150.13,415.16l-90.13,27.5,30.2-93.31,59.93,65.81ZM376.81,210.84l-87.96-87.96,32.79-32.79,87.96,87.96-32.79,32.79ZM431.99,155.66l-87.96-87.96,10.88-10.88c1.96-1.67,5.67-4.06,11.43-4.95,20.39-3.68,53.55-5.34,70.89,11.36,15.89,15.3,15.43,43.62,10.77,68.66-1.35,8.22-6.02,13.73-7.8,15.56l-8.21,8.21Z"/>
</svg>